<svg xmlns="http://www.w3.org/2000/svg" viewBox="0 0 760 620" role="img" aria-labelledby="title desc">
  <title id="title">Marketing performance dashboard</title>
  <desc id="desc">A stylized dashboard with campaign metrics, charts, and social content tiles.</desc>
  <defs>
    <linearGradient id="screen" x1="0" x2="1" y1="0" y2="1">
      <stop offset="0" stop-color="#10161d"/>
      <stop offset="1" stop-color="#202a35"/>
    </linearGradient>
    <linearGradient id="green" x1="0" x2="1" y1="0" y2="1">
      <stop offset="0" stop-color="#28c76f"/>
      <stop offset="1" stop-color="#9be15d"/>
    </linearGradient>
    <linearGradient id="blue" x1="0" x2="1" y1="0" y2="1">
      <stop offset="0" stop-color="#2f80ed"/>
      <stop offset="1" stop-color="#56ccf2"/>
    </linearGradient>
    <filter id="shadow" x="-20%" y="-20%" width="140%" height="140%">
      <feDropShadow dx="0" dy="18" stdDeviation="20" flood-color="#0c1014" flood-opacity=".22"/>
    </filter>
  </defs>
  <rect width="760" height="620" rx="28" fill="#f7f5ef"/>
  <g filter="url(#shadow)">
    <rect x="54" y="44" width="652" height="500" rx="22" fill="url(#screen)"/>
    <rect x="78" y="72" width="604" height="52" rx="12" fill="#f7f5ef" opacity=".08"/>
    <circle cx="104" cy="98" r="7" fill="#ff6b4a"/>
    <circle cx="127" cy="98" r="7" fill="#f8c64c"/>
    <circle cx="150" cy="98" r="7" fill="#28c76f"/>
    <rect x="512" y="88" width="130" height="18" rx="9" fill="#fff" opacity=".16"/>
    <rect x="78" y="152" width="180" height="130" rx="16" fill="#fff" opacity=".1"/>
    <rect x="102" y="177" width="86" height="14" rx="7" fill="#fff" opacity=".45"/>
    <rect x="102" y="207" width="106" height="40" rx="10" fill="url(#green)"/>
    <rect x="102" y="257" width="124" height="10" rx="5" fill="#fff" opacity=".2"/>
    <rect x="286" y="152" width="180" height="130" rx="16" fill="#fff" opacity=".1"/>
    <rect x="310" y="177" width="92" height="14" rx="7" fill="#fff" opacity=".45"/>
    <path d="M316 250c22-48 54-22 76-54 18-25 32-16 50 10" fill="none" stroke="#56ccf2" stroke-width="12" stroke-linecap="round"/>
    <rect x="494" y="152" width="188" height="130" rx="16" fill="#fff" opacity=".1"/>
    <rect x="518" y="177" width="88" height="14" rx="7" fill="#fff" opacity=".45"/>
    <circle cx="572" cy="234" r="36" fill="none" stroke="#f8c64c" stroke-width="18"/>
    <path d="M572 198a36 36 0 0 1 34 48" fill="none" stroke="#ff6b4a" stroke-width="18" stroke-linecap="round"/>
    <rect x="78" y="314" width="388" height="188" rx="18" fill="#fff" opacity=".1"/>
    <rect x="104" y="342" width="142" height="14" rx="7" fill="#fff" opacity=".5"/>
    <rect x="104" y="456" width="42" height="18" rx="9" fill="#28c76f"/>
    <rect x="168" y="426" width="42" height="48" rx="9" fill="#2f80ed"/>
    <rect x="232" y="394" width="42" height="80" rx="9" fill="#f8c64c"/>
    <rect x="296" y="368" width="42" height="106" rx="9" fill="#ff6b4a"/>
    <rect x="360" y="410" width="42" height="64" rx="9" fill="#56ccf2"/>
    <path d="M104 382h318" stroke="#fff" stroke-opacity=".12"/>
    <path d="M104 426h318" stroke="#fff" stroke-opacity=".12"/>
    <path d="M104 470h318" stroke="#fff" stroke-opacity=".12"/>
    <rect x="494" y="314" width="188" height="188" rx="18" fill="#fff" opacity=".1"/>
    <rect x="520" y="342" width="78" height="14" rx="7" fill="#fff" opacity=".5"/>
    <rect x="520" y="378" width="136" height="26" rx="13" fill="#fff" opacity=".14"/>
    <rect x="520" y="420" width="112" height="26" rx="13" fill="#fff" opacity=".14"/>
    <rect x="520" y="462" width="92" height="26" rx="13" fill="#fff" opacity=".14"/>
  </g>
  <g>
    <rect x="92" y="518" width="198" height="56" rx="16" fill="#ffffff"/>
    <circle cx="126" cy="546" r="16" fill="url(#blue)"/>
    <rect x="156" y="535" width="92" height="8" rx="4" fill="#0c1014" opacity=".8"/>
    <rect x="156" y="551" width="64" height="8" rx="4" fill="#5d646b" opacity=".55"/>
    <rect x="494" y="28" width="156" height="66" rx="18" fill="#ffffff"/>
    <rect x="518" y="52" width="66" height="10" rx="5" fill="#0c1014" opacity=".8"/>
    <rect x="518" y="70" width="96" height="8" rx="4" fill="#5d646b" opacity=".55"/>
  </g>
</svg>
